<?xml version="1.0" encoding="UTF-8" standalone="no"?>
<!-- Created with Inkscape (http://www.inkscape.org/) -->

<svg
   xmlns:dc="http://purl.org/dc/elements/1.1/"
   xmlns:cc="http://creativecommons.org/ns#"
   xmlns:rdf="http://www.w3.org/1999/02/22-rdf-syntax-ns#"
   xmlns:svg="http://www.w3.org/2000/svg"
   xmlns="http://www.w3.org/2000/svg"
   xmlns:sodipodi="http://sodipodi.sourceforge.net/DTD/sodipodi-0.dtd"
   xmlns:inkscape="http://www.inkscape.org/namespaces/inkscape"
   width="512"
   height="512"
   viewBox="0 0 135.46666 135.46667"
   version="1.1"
   id="svg8"
   inkscape:version="0.92.4 (5da689c313, 2019-01-14)"
   sodipodi:docname="gusti-2017.svg">
  <title
     id="title4545">gus-2017</title>
  <defs
     id="defs2" />
  <sodipodi:namedview
     id="base"
     pagecolor="#ffffff"
     bordercolor="#666666"
     borderopacity="1.0"
     inkscape:pageopacity="0.0"
     inkscape:pageshadow="2"
     inkscape:zoom="1.4"
     inkscape:cx="128.96083"
     inkscape:cy="252.11718"
     inkscape:document-units="mm"
     inkscape:current-layer="layer1"
     showgrid="false"
     units="px"
     inkscape:window-width="1842"
     inkscape:window-height="1051"
     inkscape:window-x="69"
     inkscape:window-y="1431"
     inkscape:window-maximized="1" />
  <metadata
     id="metadata5">
    <rdf:RDF>
      <cc:Work
         rdf:about="">
        <dc:format>image/svg+xml</dc:format>
        <dc:type
           rdf:resource="http://purl.org/dc/dcmitype/StillImage" />
        <dc:title>gus-2017</dc:title>
      </cc:Work>
    </rdf:RDF>
  </metadata>
  <g
     inkscape:label="Layer 1"
     inkscape:groupmode="layer"
     id="layer1"
     transform="translate(0,-161.53332)">
    <path
       style="fill:#ab9390;stroke-width:0.51223654"
       d="m 2.4694471,293.28706 c 3.3322643,-8.12827 13.6346329,-8.93848 20.6091429,-12.54681 7.852136,-2.87723 16.212487,-4.98263 23.34078,-9.13971 6.888875,-5.43558 -0.650458,-11.67361 -2.401315,-17.48662 -2.252256,-6.2131 -3.04514,-12.81463 -3.889589,-19.332 2.686294,-5.38198 -1.932929,-11.64817 -7.488262,-8.69585 -3.153888,-4.0263 5.180683,-2.83539 6.25613,-2.96925 -0.951829,-6.10449 -1.640559,-12.30717 0.520878,-18.4471 3.206065,-6.98561 -6.342271,-6.66239 -7.300523,-11.47411 4.040059,-5.90536 12.367298,-6.96786 18.656672,-9.86413 6.155283,-3.57606 13.426233,-0.31708 20.027732,-0.13338 10.042592,1.46061 17.722374,9.27187 22.538245,17.72345 4.831812,5.87223 5.271699,13.94209 4.701407,21.20414 5.864755,5.08599 3.891725,15.24604 -1.176501,20.13607 -7.148724,7.29128 -9.880142,19.76385 -3.31572,28.28577 3.772099,4.45146 10.170796,4.23465 15.049986,6.89403 7.29928,3.33042 15.08208,5.48796 22.24059,9.08908 3.25305,1.23954 4.87797,9.95823 -0.0187,9.0583 -42.783667,0 -85.567331,0 -128.3509959,0 2.1e-6,-0.76729 -4.1e-6,-1.53459 3e-6,-2.30188 z M 35.508703,194.4037 c -4.276555,-2.07227 -0.396307,1.48118 0.372902,0.38427 l -0.24203,-0.24941 z m -2.817301,27.47013 c 1.639828,-3.27146 4.854092,-0.13533 0,0 z"
       id="path4543"
       inkscape:connector-curvature="0" />
    <path
       inkscape:connector-curvature="0"
       id="path4541"
       d="m 2.5704467,293.17753 c 2.7858717,-6.16246 10.5578993,-7.09817 15.8435073,-10.34475 6.566005,-2.55805 13.540547,-3.63726 19.785557,-6.91236 6.248926,-0.87692 10.958318,-4.76766 13.132883,-10.22418 1.569021,4.81274 3.164333,9.84158 6.132667,14.10116 3.432852,4.84614 6.564099,10.6054 12.490878,12.70604 7.497885,4.43394 -5.568502,2.65508 -8.901045,3.11907 -8.163799,0.20974 -16.299808,-1.06305 -24.432781,0.0254 -11.394314,-0.15056 -22.805171,-0.0558 -34.206785,-0.10827 l 0.07756,-1.18105 0.077559,-1.18105 z M 38.69951,294.7672 c -1.552107,-0.73322 -1.242407,1.08288 0,0 z m 11.245613,-4.3967 c -1.098643,-0.22163 0.737188,2.20326 0,0 z m -8.5457,-5.3429 c -1.721479,-1.64766 -0.461602,3.18583 0,0 z m 8.5457,0.22054 c -1.098637,-0.22166 0.737178,2.20326 0,0 z m -18.88093,-4.17236 c -1.777393,-3.03759 -1.355049,3.35982 0,0 z m 19.445698,-2.26684 c -3.81775,-0.75194 0.88574,5.005 0,0 z m 28.833068,12.81014 c -0.332912,-8.49866 9.518725,-13.82105 8.357615,-22.46891 -0.01388,-5.81878 -4.889618,-4.05671 -6.145216,0.0443 -1.522362,3.37629 -5.616437,10.68701 -8.529125,8.62861 4.479022,-7.78877 -6.121722,-3.32533 -9.952372,-4.63387 -3.942832,0.18356 -14.040478,-7.3317 -5.173112,-5.93437 6.365921,0.92417 12.280377,-2.18607 15.126882,-7.617 5.056308,5.02588 9.536545,-6.72951 11.7918,-10.90238 1.845832,-6.54532 3.462869,-15.72946 1.237123,-21.38132 -2.953727,7.29001 -12.452826,-0.78759 -18.146798,2.18857 -7.586209,2.61285 3.505303,9.3675 -3.090485,13.43837 -1.667732,2.61918 -3.648106,4.26825 -6.593342,1.25299 -4.861583,-0.96865 -5.881015,-3.99835 -3.33137,-8.2937 -1.722445,-4.36686 5.70702,-11.21447 0.444172,-13.58205 -1.984904,4.87279 -10.965663,11.19282 -14.96466,3.40159 -2.007071,-0.35716 -12.165926,-0.33704 -5.632671,-1.63132 3.920942,1.21656 8.495686,-1.04163 4.726947,-5.22764 -2.493352,-7.72609 0.65056,-15.69106 3.542572,-22.76089 -1.775087,0.12214 -10.239056,-2.21722 -6.530742,-4.02461 3.347857,1.19563 5.338906,-3.14323 1.077472,-3.1974 4.636264,-0.95265 9.11498,-2.40213 13.001006,-5.1369 7.333462,-2.93478 15.298477,-0.55432 22.77407,0.44308 7.755449,2.22624 14.452341,7.90994 18.121414,15.03325 5.494853,5.72617 6.715309,13.36932 6.021145,20.94956 1.558079,5.98534 5.359326,11.20898 1.388292,17.54024 -2.532962,6.12278 -9.427669,9.23224 -9.06945,16.851 -2.893533,6.49738 0.938391,13.2746 4.895735,18.35894 6.496239,2.60416 13.242409,4.59158 19.651309,7.37554 6.47236,2.10815 12.63991,5.03112 18.70332,8.09958 2.04575,5.19245 -0.18098,8.58822 -5.83048,7.04229 -9.3195,0.20679 -18.70223,0.0868 -27.97641,-0.1492 -5.642583,0.23413 -11.282884,-0.45781 -16.895199,0.32767 -3.512188,0.70879 -3.487801,-1.29592 -2.999442,-4.03405 z M 48.826852,224.38803 c -2.303178,-3.90376 -2.309167,3.86088 0,0 z m -4.866247,-3.58565 c 1.305036,-1.71788 -3.633238,1.93911 0,0 z m 14.23805,-1.66683 c 1.024217,-7.61738 10.919629,-4.84844 15.996366,-7.5587 3.553009,1.09422 8.872938,2.09284 7.15641,-3.70254 -1.096605,-5.86567 -8.904547,-6.9176 -12.333823,-11.04645 -7.136277,-1.74959 -15.511482,-1.17247 -21.996196,2.38655 -4.686171,3.34433 -8.386144,11.83224 -5.159401,16.55483 5.518447,-1.44294 9.906667,-0.24816 13.722774,4.00792 0.915885,0.16875 1.838804,-0.18675 2.61387,-0.64161 z M 41.260692,192.83213 c -1.552227,-0.73322 -1.242259,1.08289 0,0 z m 3.21215,-2.25171 c -1.31263,-2.17381 -1.264436,2.09399 0,0 z m 11.838913,67.47961 c -2.468184,-4.62465 10.772299,0.75957 2.27546,0.57212 -0.780496,-0.0727 -1.564328,-0.22984 -2.27546,-0.57212 z m 4.462861,-3.6176 c -2.582243,-2.3924 -13.81812,1.2178 -10.896695,-3.40262 6.665317,-2.80951 14.279441,0.14258 20.587798,-0.8999 4.533812,-4.68896 4.447055,3.55237 -0.359147,3.64559 -2.856114,1.20956 -6.405875,2.17361 -9.331956,0.65693 z m -10.667172,-14.2053 c 1.117393,-1.04075 0.810669,1.6315 0,0 z M 36.575665,190.64917 c -0.734879,-2.79519 1.844322,0.90474 0,0 z"
       style="fill:#9d827c;stroke-width:0.51223654" />
    <path
       style="fill:#718a9b;stroke-width:0.51223654"
       d="m 2.5704467,293.17753 c 3.9436191,-6.99637 12.8827373,-8.33865 19.5548423,-11.65139 7.527768,-2.01919 14.766641,-4.83362 21.993519,-7.58883 4.25409,-0.61043 7.257961,-11.06941 8.400041,-3.29726 2.395514,7.5391 8.239266,13.62059 9.747654,21.4478 -2.208902,7.46966 -13.70743,1.55125 -19.627888,3.06403 -13.147081,0.95443 -26.349899,0.14926 -39.5210838,0.39819 -1.2540719,-0.25443 -0.4904418,-1.59261 -0.5470845,-2.37254 z M 38.69951,294.7672 c -1.446677,-0.9297 -1.11864,1.24205 0,0 z m 11.245613,-4.3967 c -1.254932,-0.0686 1.133572,2.15601 0,0 z m -8.5457,-5.3429 c -2.023626,-1.47821 0.04004,3.00369 0,0 z m 8.5457,0.22054 c -1.254926,-0.0686 1.133562,2.15602 0,0 z m -18.88093,-4.17236 c -1.896566,-2.98101 -1.083241,3.26859 0,0 z m 19.445698,-2.26684 c -3.783932,-0.23269 1.251853,4.16179 0,0 z m 13.940175,16.23107 c 3.592707,-2.26457 7.164056,2.4462 0,0 z m 19.572911,-0.14943 c 4.141484,-6.47267 -1.494009,-15.06733 3.857592,-21.23742 0.191826,-2.58221 1.56983,-12.06181 3.682499,-5.11071 3.207429,7.43077 12.548742,6.68213 18.648032,10.22438 7.06461,3.2278 14.89003,4.92099 21.51247,9.00718 4.48186,4.02148 0.69858,10.60583 -4.95743,7.7248 -14.34864,0.2061 -28.69588,-0.16631 -43.041664,-0.30165 l 0.242439,-0.249 z m -3.574125,-4.27136 c -0.213787,-3.28831 4.649719,-7.28477 2.021322,-1.70865 -0.02765,0.86639 -2.432488,5.75903 -2.021322,1.70865 z M 60.352174,271.36734 c -6.162307,-3.48582 4.965529,-1.63329 6.464559,-3.52037 7.857771,-3.03073 16.963614,-6.45329 20.238992,-15.0011 2.491797,-5.95578 1.640289,-13.13307 3.478266,-18.1556 5.868037,-6.51974 -5.694181,-13.16641 -11.2145,-8.06351 -5.410064,0.18392 -17.794956,-0.37944 -15.717081,7.92755 5.541743,4.78491 -0.964547,10.7232 -6.459198,8.38951 -4.978593,-1.31557 -0.792902,-7.11776 2.791953,-3.87597 7.865044,0.0551 -9.064871,-4.06712 -1.2762,-6.79785 5.764779,-2.48146 -4.326825,-15.92888 -6.403338,-6.54691 -2.812783,3.52559 -4.744683,1.02835 -2.962654,-1.67626 -2.253991,-1.64131 -4.624104,7.35793 -7.945103,1.96913 -2.148952,-1.31323 -9.243956,0.24169 -8.161134,-1.67334 3.693373,1.14862 12.540243,-1.89006 11.177888,-3.74308 -5.890579,1.56711 -4.92296,-6.35224 0.591523,-4.97404 5.362903,-2.2858 10.106409,8.48463 14.019182,1.91961 4.392996,-4.83977 11.654678,-5.13093 17.695964,-4.75747 4.950145,0.0165 7.88723,6.16185 11.986747,6.33154 -2.481226,-5.32852 -2.434952,-13.44841 -7.997248,-16.44653 -5.88379,-1.91975 -9.373306,-8.83543 -16.552139,-7.36542 -5.776894,0.76777 -12.239369,-0.12449 -17.263399,3.30317 -6.340141,3.38237 -4.57414,11.66836 -7.746262,16.33907 -1.796676,-6.03092 1.613824,-12.58023 3.768999,-18.268 0.677823,-1.02899 -9.93891,-1.18249 -6.153509,-4.73227 3.054319,0.009 4.789465,-1.44768 1.879344,-3.42392 8.020299,-1.41326 15.299264,-8.08866 23.892596,-5.97106 8.654543,0.57038 17.845783,2.73949 23.76642,9.57976 4.527485,5.49696 9.110489,11.59235 11.17383,18.45367 1.086875,6.1557 -1.402381,12.20621 -1.140196,18.35538 5.276314,5.10792 -0.508583,10.21214 -3.023961,14.54347 -3.143307,7.61271 -5.135369,16.04833 -11.22649,21.98904 -5.054477,6.14615 -14.219165,9.74884 -21.683851,5.8918 z M 41.260692,192.83213 c -1.446762,-0.92972 -1.118536,1.24206 0,0 z m 3.21215,-2.25171 c -1.241896,-2.29574 -1.332623,2.22372 0,0 z m 19.721106,62.89874 c -4.157319,-1.68746 -10.287968,1.34342 -13.33299,-2.11036 5.725521,-0.325 14.918538,-1.80438 18.476345,1.228 -1.418468,1.1418 -3.428092,1.23293 -5.143355,0.88236 z m 35.434336,-21.40758 c -1.99339,-2.19116 -0.06759,-9.5544 1.156296,-3.22374 -0.24486,0.89497 0.44231,3.41071 -1.156296,3.22374 z M 36.575665,190.64917 c -0.87325,-2.82905 1.905386,0.86021 0,0 z"
       id="path4539"
       inkscape:connector-curvature="0" />
    <path
       style="fill:#917371;stroke-width:0.51223654"
       d="m 3.4939201,294.40622 c -1.3937423,-6.22181 9.0695859,1.40647 2.3493179,0.40664 -0.6775118,0.14506 -2.4431234,1.08372 -2.3493179,-0.40664 z m 7.6835479,0.14207 c -0.910248,-8.07018 10.857065,-7.68943 13.40657,-13.71619 4.356612,-0.79096 -0.432002,4.1241 4.339774,2.67822 2.289293,0.50772 1.692427,5.22882 4.861259,2.27663 2.524226,-3.43263 -3.417344,-6.45557 2.319853,-7.81827 6.562248,-1.9008 5.530608,4.79208 1.663072,7.79767 -1.672894,4.72877 4.330746,3.61244 4.388941,-0.52276 2.742531,-2.19776 0.709705,-11.86077 4.552478,-9.01815 -1.440209,5.78321 -0.899743,11.74048 -2.038636,17.55969 -2.561648,4.6943 -6.150103,-0.65885 -6.571916,-3.60215 -5.125765,-3.01562 0.940238,7.55404 -5.054809,4.5828 -2.692235,-0.62996 -1.565222,-6.80393 -2.563986,-2.02664 -1.249831,5.22278 -5.039941,2.23963 -4.38818,-1.4755 -4.614266,-2.96367 -1.860105,6.33128 -4.630068,2.71912 -3.14735,1.76719 -7.070313,1.8337 -10.284352,0.56553 z m 6.408186,-4.51396 c -5.488798,0.96406 2.553887,4.19456 0,0 z m 10.017058,-1.63475 c 2.026138,-4.77582 -6.87341,1.38489 -0.526303,0.25368 l 0.310722,-0.14977 z m 20.312446,6.00274 c 6.295076,-5.41387 2.750563,-14.42137 1.990796,-21.35215 -0.755021,-3.3454 1.752482,-7.92378 2.647848,-1.94771 2.919123,7.33312 8.256339,13.64992 9.815791,21.52145 -2.610233,4.70731 -11.007464,3.11673 -14.454435,1.77841 z m 16.534908,0.63769 c 4.054526,-2.36586 6.451777,2.59228 0,0 z m 19.20887,0.0367 c 1.093913,-1.97135 1.034312,1.11948 0,0 z m 1.605882,-0.26056 c 1.190798,-7.14785 -1.845059,-15.23639 2.792121,-21.58572 -0.231512,-2.78083 1.89118,-11.43565 3.371146,-4.21957 2.942608,7.12688 12.891645,5.39487 16.745005,11.60866 4.69128,-1.35057 8.42186,4.23291 13.65675,2.81187 4.31831,2.25336 7.64254,5.06455 11.12424,8.48632 0.93193,6.30358 -8.93989,0.85552 -12.38384,3.36991 -4.81979,1.78909 -9.37404,-0.61102 -11.8127,-4.12938 -2.7636,2.04699 2.77281,5.47357 -2.0376,3.80556 -7.236038,1.81688 -8.815484,-5.4236 -9.466197,-10.92791 0.314247,-2.95472 -4.423487,-8.85704 -3.423338,-2.59995 -0.362515,3.78984 3.712436,12.52868 -1.046385,13.10472 -1.545848,-2.20861 -3.488476,-8.60193 -5.661432,-2.96322 -0.485875,0.78507 0.165006,5.50596 -1.85777,3.23871 z m 39.629162,-3.26237 c -3.00316,-6.30684 -6.30852,3.62607 0,0 z m -8.91078,-0.94847 c -1.93465,0.2491 1.37579,1.66724 0,0 z m -7.46286,-2.42218 c 3.16157,-4.05914 -6.57288,-6.3179 -2.45391,-1.27052 0.35507,0.48271 3.22958,4.1994 2.45391,1.27052 z m 14.84616,-2.57167 c -5.21477,-5.5653 -2.45408,3.36137 0,0 z m -42.917648,5.0078 c -0.742086,-2.97988 4.703698,-6.70717 2.021322,-1.70865 0.07515,1.17896 -2.48886,5.24436 -2.021322,1.70865 z m 14.991524,0.35956 c 0.409692,-3.74783 2.676914,2.59915 0,0 z m -48.321395,-1.05535 c 0.824649,-4.08287 2.215758,-3e-5 0.370658,1.0042 z m 85.714659,-0.99359 c 0.59696,-1.86752 0.63936,1.79638 0,0 z m -72.481466,-17.5625 c -4.766653,-3.84404 7.406116,-1.72333 9.455901,-4.68451 8.070038,-2.91204 16.737738,-8.10345 18.336439,-17.29366 0.179979,-7.08495 3.160857,-13.98475 3.500555,-20.4859 -4.737193,-7.76557 -12.769131,-1.17844 -19.506457,-1.96109 -5.790872,-0.57624 -12.081246,5.51083 -6.603576,10.36316 2.686349,7.45649 -14.198073,8.15704 -9.371353,1.2174 1.548374,-0.8492 8.841104,1.93304 4.002898,-1.31493 -4.480846,-1.45008 -3.927743,-4.71751 -0.03384,-6.2903 2.049779,-5.73338 -6.93276,-12.33863 -8.570514,-4.33464 -3.373641,2.70192 -2.796004,-1.38691 -2.569218,-2.82281 -3.016911,-0.69264 -4.360503,7.3605 -8.594524,2.37001 -2.662755,-0.77473 -7.620378,-1.49411 -1.876159,-1.77757 2.488674,-0.14311 10.319903,-4.65994 3.485822,-3.9753 -5.98569,-5.05756 9.036924,-6.90912 10.764608,-1.89706 5.698306,4.0829 8.766259,-6.5093 14.958566,-5.37737 6.463844,-1.18491 14.454756,-0.38908 18.383059,5.58474 5.772177,1.8515 -1.075953,-7.17371 -0.776988,-10.01331 -2.947409,-6.79883 -10.782357,-10.17801 -17.169939,-12.85667 -7.704113,-1.41241 -16.2111,-0.26017 -22.893012,3.89555 -5.06125,3.00987 -2.718739,12.28208 -6.366441,14.25236 -1.440128,-6.02462 3.698486,-11.16614 3.272908,-17.02639 -0.921136,-2.86054 -9.716276,-4.01766 -2.044722,-3.65462 2.833618,-1.11386 0.349505,-6.70425 5.387947,-6.83254 5.908966,-2.71886 12.011704,-5.20746 18.705415,-3.49157 8.717251,0.35071 17.769381,3.4979 23.110246,10.75587 6.582867,7.6246 12.969955,17.82841 9.683736,28.28481 -3.705433,5.42653 4.277039,11.0558 -0.234627,15.76451 -4.040997,6.01547 -6.512574,12.77359 -8.836847,19.5596 -4.28953,8.55419 -12.985912,16.60647 -23.198053,15.51015 -1.542522,-0.20158 -3.056394,-0.68021 -4.401827,-1.46792 z M 44.472842,190.6658 c -0.792131,-3.22763 -2.356066,1.86385 0,0 z m 19.721106,62.81336 c -3.344656,-1.31842 -13.135101,0.80526 -12.221042,-2.18344 5.71386,-0.15694 12.205573,-1.93935 17.364397,1.30108 -1.437675,1.14744 -3.415966,1.23023 -5.143355,0.88236 z m 35.434336,-21.40758 c -2.80197,-3.07492 1.260456,-8.84606 1.097126,-2.31617 0.0128,0.73886 0.16086,2.51497 -1.097126,2.31617 z"
       id="path4537"
       inkscape:connector-curvature="0" />
    <path
       inkscape:connector-curvature="0"
       id="path4535"
       d="m 56.766519,240.33008 c 2.811266,-3.9817 4.886747,2.6931 0,0 z m 38.994958,-4.35479 c -0.160344,-2.26419 -0.29157,-7.23223 2.012767,-2.56987 0.776005,1.00994 -2.458109,6.07235 -2.012767,2.56987 z m -3.075663,-8.22077 c -3.290319,-7.7947 -12.994134,0.234 -17.81531,-4.22319 -2.532776,-1.81149 -6.013401,3.52134 -8.76477,-0.71876 -4.208305,-2.69504 2.502978,6.57623 -3.771891,4.38894 -4.565802,-0.77781 -7.576598,-8.08784 -1.592749,-9.40863 4.738133,-3.26367 11.45346,-5.96548 16.94791,-3.19322 -2.727669,-0.19445 -8.90761,1.58248 -6.786941,4.67205 3.001388,-0.83253 11.211021,4.74963 10.383934,0.47383 -3.742019,-0.92624 -2.810916,-4.57367 0.233212,-1.76878 2.657954,2.91268 12.299287,4.498 8.259232,-1.94065 -3.803221,-4.74608 -3.291503,-16.09521 -11.052619,-15.34067 -5.073287,-4.39562 -10.649676,-7.42256 -17.642312,-5.70053 -7.219319,-0.0794 -16.230544,0.94861 -18.898955,8.96621 -2.036842,2.89685 -0.97652,8.23266 -3.201967,10.25861 -1.771982,-6.13396 4.763652,-15.44778 3.539612,-18.48556 -2.319313,0.81303 -10.309785,-4.39609 -4.181071,-2.44827 6.260377,1.63712 0.03114,-5.60861 5.692756,-5.83715 5.325593,-1.94144 9.659563,-6.37012 15.84468,-4.77377 9.105121,0.40711 19.248363,1.60327 25.573851,8.98438 4.913937,5.73326 10.263376,12.06525 11.663374,19.65038 1.459148,5.70071 -0.270602,15.38056 -3.898302,17.96743 l -0.254916,-0.62709 z M 61.30767,220.00788 c -1.119213,-1.81256 -1.762827,3.33638 -0.04515,0.10499 z M 44.477523,190.32994 c -3.150185,-1.96868 0.372438,2.34751 0,0 z m -1.925568,35.7678 c -3.358062,-5.19493 8.381703,-3.82184 2.101584,0.0266 -0.671779,0.24914 -1.437068,0.24702 -2.101584,-0.0266 z m 8.256286,-1.65879 c 3.011547,-4.81661 -12.297704,-6.41078 -3.171161,-8.19668 6.006928,-1.00551 7.353267,10.25748 3.021737,9.35528 z m -17.092366,0.46132 c 2.546191,-1.78204 8.603969,1.04998 2.593437,0.43667 -0.870215,-0.002 -1.831956,0.0985 -2.593437,-0.43667 z m 6.393476,-5.64994 c 0.93588,-3.91528 3.778847,2.31958 0,0 z"
       style="fill:#63718b;stroke-width:0.51223654"
       sodipodi:nodetypes="ccccccccccccccccccccccccccccccccccccccccccccc" />
    <path
       style="fill:#605963;stroke-width:0.51223654"
       d="m 5.5628205,294.46785 c -3.2736336,-7.21359 5.3849295,3.04758 0,0 z m 11.7614855,-0.0455 c -0.76153,-4.20593 5.32857,-12.11769 4.839645,-5.0845 -2.717041,0.75004 -0.974464,8.48225 -4.839645,5.0845 z m 9.469502,-0.68877 c -1.298701,-4.03951 5.0917,-6.04366 2.68237,-0.97564 -0.203791,1.69311 -3.794772,4.80737 -2.68237,0.97564 z m 5.385357,1.34314 c 1.241897,-2.29574 1.332624,2.22372 0,0 z m 7.171312,0.0627 c 2.439857,-3.89482 4.421151,2.59865 0,0 z m 5.378483,-0.0627 c 0.478903,-1.87731 0.885768,1.81071 0,0 z m 3.329538,0.0921 c 5.741343,-3.64764 4.843316,-10.53362 3.552087,-16.23552 -1.766806,-3.16423 -0.924418,-13.62639 1.451678,-5.72855 3.097131,6.79573 7.720105,13.74716 6.578726,21.56266 -1.860396,-1.60725 -5.045905,-5.92566 -3.502359,-0.39112 -1.115582,2.89285 -5.879941,0.46999 -8.080132,0.79253 z m 52.392342,-0.22012 c 0.79247,-6.65926 -7.210036,-15.73057 -3.981737,-20.14777 4.542197,1.14167 9.791007,3.63811 7.236787,8.4633 0.25199,2.75648 5.99415,11.91975 1.21461,10.73781 -0.87254,-1.98783 -3.50319,-9.36592 -4.38654,-6.84623 0.79235,1.87307 3.98576,7.8715 -0.0831,7.79289 z m 0.88026,-15.20185 c -2.313708,-5.14166 -4.590527,0.8628 0,0 z m 10.84067,15.20872 c -2.47549,-2.7593 -4.65182,-12.47071 1.47111,-7.37114 2.66995,-2.206 5.97437,-3.9717 4.96425,1.14331 0.81202,2.03852 4.89248,8.66748 -0.36271,5.8642 -0.10674,-3.28783 -5.22336,-6.76556 -3.71819,-1.52304 2.47754,3.38724 -0.10321,2.44255 -2.35446,1.88667 z m 14.81851,-0.45821 c -0.68238,-2.1982 -5.93741,-9.02231 -0.18117,-5.77326 2.15766,1.19059 6.14603,9.14339 0.18117,5.77326 z m 4.94695,-0.17334 c -3.67403,-6.37529 5.16865,-0.56003 0.5217,0.74896 -0.1739,-0.24965 -0.3478,-0.49931 -0.5217,-0.74896 z m -120.09634,-0.1389 c -1.579842,-3.64188 7.948228,-9.07674 3.0376,-2.83903 -0.271098,1.42694 -0.907076,5.20405 -3.0376,2.83903 z m 80.269949,-1.41342 c 1.494711,-7.27307 2.503433,7.34341 0,0 z m -59.447313,-1.66477 c -2.821705,-2.05212 -2.739783,-6.6517 1.098422,-3.44717 1.511234,1.40461 2.129876,7.17284 -1.098422,3.44717 z m 8.22366,-0.67714 c -0.337706,-6.36689 7.014833,-1.73624 2.268018,0.63546 -0.792439,-0.0555 -1.536679,-0.35139 -2.268018,-0.63546 z m 50.705802,-2.27498 c -1.763836,-1.25021 -3.762481,-2.30061 -4.506251,-2.92771 -1.043498,-6.59424 1.701296,-12.9368 3.146029,-19.2389 4.189154,5.7953 0.746583,13.29279 3.511932,19.48238 0.813449,1.80196 0.01963,3.90574 -2.15171,2.68423 z m -66.769805,-2.65372 c -1.104883,-2.87364 2.998442,0.47167 0,0 z m 3.514209,-1.18129 c 1.524931,-1.85362 0.230583,1.84979 0,0 z m 6.402956,-0.17673 c 0.778216,-3.92573 7.320151,-1.08043 1.687309,-0.20104 -0.05305,0.58474 -1.86889,1.38292 -1.687309,0.20104 z m 75.811002,0.32403 c -7.59157,-2.79641 5.77698,-4.03777 2.75324,-0.005 -0.90212,0.27528 -1.84215,0.0927 -2.75324,0.005 z m -66.790263,-2.92739 c 2.334698,-3.16817 1.459825,2.18715 0,0 z m -8.140516,-0.87611 c -0.88284,-3.5463 4.236741,0.9007 0,0 z m 9.876744,-4.50936 c 0.277892,-2.8015 1.557011,0.51899 0.342314,0.70207 z m 24.192578,-5.92095 c 1.395542,-3.64783 1.459608,4.31703 0,0 z M 56.766519,240.33008 c 2.895468,-4.10047 4.643093,2.86253 0,0 z m 38.994958,-4.35479 c -1.522552,-3.89901 2.187623,-5.94469 1.963023,-1.24972 -0.109173,0.75158 -2.277038,4.30089 -1.963023,1.24972 z m -3.075663,-8.22077 c -3.699001,-8.15481 -14.464531,1.33015 -19.215389,-5.49764 -2.695479,3.57269 -5.554428,2.33384 -8.415591,0.0646 -0.931325,2.40041 1.747126,6.07378 -2.979838,4.8139 -6.718992,-1.74893 -5.026393,-10.32329 1.282542,-10.95558 3.178778,-2.90455 13.446709,-3.38773 13.169719,-1.56196 -4.936149,-0.42801 -8.65724,5.56062 -1.720259,5.25604 2.133733,1.77163 9.9461,1.90789 4.508695,-1.18992 -0.178028,-4.58153 8.036842,5.60953 11.250416,0.78125 -1.766349,-5.62412 -4.099252,-12.14408 -7.373924,-17.35855 -6.839499,-2.04956 -12.655453,-9.27697 -20.813929,-7.37982 -6.762429,0.50159 -15.312966,0.3292 -19.23508,7.08101 -2.884521,3.11488 -1.446228,9.46771 -4.243965,11.51839 -1.265724,-6.04766 5.529065,-14.15336 3.563844,-18.03428 -4.418812,-7.16507 5.118828,-8.3845 9.619515,-11.64077 7.536531,-2.09423 15.860838,-0.24033 23.332179,1.60282 9.195445,2.78865 14.255192,11.46977 19.228164,18.96329 3.163225,5.92969 3.795149,13.08909 1.995037,19.53949 -1.474741,0.69843 -2.356074,9.68456 -3.952136,3.99772 z M 61.30767,220.00788 c -1.794397,-1.56346 -0.990752,3.28922 0,0 z M 44.985079,190.82046 c -1.680593,-4.09567 -2.849851,2.72893 0,0 z m -2.433124,35.27728 c -3.237419,-4.97197 8.043747,-3.99345 2.05942,0.0846 -0.656912,0.26699 -1.426707,0.23597 -2.05942,-0.0846 z m 8.256286,-1.65879 c 2.890483,-4.45102 -11.286618,-6.42104 -3.171161,-8.19668 6.22954,-2.20079 6.683013,11.72716 3.153412,8.3343 z m -16.580129,0.46132 c 2.793566,-2.43891 3.351256,1.8855 0,0 z m 5.881239,-5.64994 c 1.049663,-3.90738 3.354908,2.45056 0,0 z m -1.72481,-25.04807 c -0.920623,-2.32725 2.071121,1.13317 0,0 z"
       id="path4533"
       inkscape:connector-curvature="0" />
    <path
       inkscape:connector-curvature="0"
       id="path4531"
       d="m 17.836543,295.07667 c -1.010586,-2.27825 2.572236,1.75282 0,0 z m 31.246428,-0.17672 c 0.03823,-6.21405 10.787976,1.04237 3.205389,0.64948 -1.041336,0.0118 -2.457565,0.31374 -3.205389,-0.64948 z m 63.294379,0.2304 c 1.57784,-2.76718 3.52165,2.17487 0,0 z m 6.19904,0.11707 c -2.81948,-7.18892 4.30703,1.91207 0,0 z m 14.07905,-1.41161 c -1.32169,-7.80572 2.77251,5.19916 0,0 z m -5.41365,-0.62528 c 0.12309,-3.79132 2.22561,2.80138 0,0 z m -93.766041,-2.3819 c -0.684013,-3.88058 1.800919,1.56552 0,0 z m 77.929331,-0.19134 c -2.0608,-3.62362 3.1731,0.0944 0.13966,0.0944 z m -8.71352,-3.37222 c -3.050442,-2.70694 -0.18623,-8.0492 0.89545,-2.17807 1.14338,2.35231 1.83107,7.7065 -0.89545,2.17807 z m -82.729236,1.69038 c 1.187307,-1.94664 0.871699,1.41319 0,0 z m 96.200146,-0.58172 c -0.6546,-4.33188 3.22565,3.45499 0,0 z M 53.4672,282.1427 c -1.299552,-2.44467 -2.526222,-12.89369 0.103732,-5.55163 0.20285,1.14428 3.629652,8.08737 -0.103732,5.55163 z m 35.057983,-2.39963 c 0.20032,-2.29433 0.625575,-10.79869 2.654831,-9.04015 1.209542,2.52171 -0.293585,13.60777 -2.644231,9.32575 z m 4.689884,-53.6693 c -0.0096,-4.82379 -12.849239,-0.90952 -8.44444,-4.84067 3.82549,1.65096 10.035122,0.35772 6.377872,-4.9044 -2.224687,-5.95161 -3.027548,-13.51613 -8.618651,-17.37287 -6.899122,-1.66908 -12.969296,-6.55849 -20.369654,-5.36689 -5.170462,-0.45217 -17.420209,5.20349 -16.565169,-3.90128 3.268302,-6.75012 12.483796,-7.42704 19.184591,-5.79599 8.127407,-0.1448 16.22136,3.09176 21.613331,9.2578 3.660109,4.81864 7.255606,9.89542 9.769528,15.42832 1.141898,5.25101 2.874556,14.57906 -2.947408,17.49598 z m -16.055132,-3.06012 c 3.283239,-0.98212 -0.664077,1.19185 0,0 z m -8.611976,-1.69904 c 1.757266,-2.07144 1.321317,1.7311 0,0 z m -25.089317,-22.8069 c 2.411523,-2.22218 -0.801037,2.41097 0,0 z"
       style="fill:#1c1a1d;stroke-width:0.51223654" />
  </g>
</svg>
